<svg id="Layer_1" data-name="Layer 1" xmlns="http://www.w3.org/2000/svg" viewBox="0 0 426.11 224.25"><defs><style>.cls-1{fill:#4b2a6b;}</style></defs><polygon class="cls-1" points="8.55 16.02 16.63 2.02 0.47 2.02 8.55 16.02"/><polygon class="cls-1" points="23.92 16.25 32.27 1.78 15.57 1.78 23.92 16.25"/><polygon class="cls-1" points="39.28 16.53 47.96 1.5 30.61 1.5 39.28 16.53"/><polygon class="cls-1" points="54.65 16.72 63.55 1.31 45.76 1.31 54.65 16.72"/><polygon class="cls-1" points="70.02 16.96 79.18 1.08 60.85 1.08 70.02 16.96"/><polygon class="cls-1" points="85.39 17.14 94.77 0.89 76 0.89 85.39 17.14"/><polygon class="cls-1" points="100.75 17.33 110.35 0.7 91.15 0.7 100.75 17.33"/><polygon class="cls-1" points="116.12 17.52 125.94 0.52 106.3 0.52 116.12 17.52"/><polygon class="cls-1" points="131.49 17.66 141.47 0.38 121.51 0.38 131.49 17.66"/><polygon class="cls-1" points="146.85 17.8 157 0.23 136.71 0.23 146.85 17.8"/><polygon class="cls-1" points="162.22 17.85 172.42 0.19 152.02 0.19 162.22 17.85"/><polygon class="cls-1" points="177.59 17.94 187.89 0.09 167.28 0.09 177.59 17.94"/><polygon class="cls-1" points="192.95 18.04 203.37 0 182.54 0 192.95 18.04"/><polygon class="cls-1" points="208.32 18.04 218.73 0 197.91 0 208.32 18.04"/><polygon class="cls-1" points="223.69 18.04 234.1 0 213.27 0 223.69 18.04"/><polygon class="cls-1" points="239.05 17.99 249.41 0.05 228.69 0.05 239.05 17.99"/><polygon class="cls-1" points="254.42 17.94 264.73 0.09 244.12 0.09 254.42 17.94"/><polygon class="cls-1" points="269.79 17.85 279.98 0.19 259.59 0.19 269.79 17.85"/><polygon class="cls-1" points="285.15 17.75 295.24 0.28 275.07 0.28 285.15 17.75"/><polygon class="cls-1" points="300.52 17.66 310.5 0.38 290.54 0.38 300.52 17.66"/><polygon class="cls-1" points="315.89 17.52 325.7 0.52 306.07 0.52 315.89 17.52"/><polygon class="cls-1" points="331.25 17.33 340.86 0.7 321.65 0.7 331.25 17.33"/><polygon class="cls-1" points="346.62 17.14 356 0.89 337.24 0.89 346.62 17.14"/><polygon class="cls-1" points="361.99 16.91 371.1 1.13 352.88 1.13 361.99 16.91"/><polygon class="cls-1" points="377.36 16.72 386.25 1.31 368.46 1.31 377.36 16.72"/><polygon class="cls-1" points="392.72 16.49 401.35 1.55 384.1 1.55 392.72 16.49"/><polygon class="cls-1" points="408.09 16.25 416.44 1.78 399.74 1.78 408.09 16.25"/><polygon class="cls-1" points="16.23 31.62 24.59 17.15 7.88 17.15 16.23 31.62"/><polygon class="cls-1" points="31.6 31.9 40.28 16.87 22.92 16.87 31.6 31.9"/><polygon class="cls-1" points="46.97 32.09 55.86 16.68 38.07 16.68 46.97 32.09"/><polygon class="cls-1" points="62.34 32.32 71.5 16.45 53.17 16.45 62.34 32.32"/><polygon class="cls-1" points="77.7 32.51 87.08 16.26 68.32 16.26 77.7 32.51"/><polygon class="cls-1" points="93.07 32.7 102.67 16.07 83.47 16.07 93.07 32.7"/><polygon class="cls-1" points="108.44 32.89 118.25 15.88 98.62 15.88 108.44 32.89"/><polygon class="cls-1" points="123.8 33.03 133.78 15.74 113.82 15.74 123.8 33.03"/><polygon class="cls-1" points="139.17 33.17 149.31 15.6 129.03 15.6 139.17 33.17"/><polygon class="cls-1" points="154.54 33.22 164.73 15.55 144.34 15.55 154.54 33.22"/><polygon class="cls-1" points="169.9 33.31 180.21 15.46 159.6 15.46 169.9 33.31"/><polygon class="cls-1" points="185.27 33.4 195.68 15.37 174.86 15.37 185.27 33.4"/><polygon class="cls-1" points="200.64 33.4 211.05 15.37 190.22 15.37 200.64 33.4"/><polygon class="cls-1" points="216 33.4 226.42 15.37 205.59 15.37 216 33.4"/><polygon class="cls-1" points="231.37 33.36 241.73 15.41 221.01 15.41 231.37 33.36"/><polygon class="cls-1" points="246.74 33.31 257.04 15.46 236.43 15.46 246.74 33.31"/><polygon class="cls-1" points="262.1 33.22 272.3 15.55 251.91 15.55 262.1 33.22"/><polygon class="cls-1" points="277.47 33.12 287.56 15.65 267.38 15.65 277.47 33.12"/><polygon class="cls-1" points="292.84 33.03 302.82 15.74 282.86 15.74 292.84 33.03"/><polygon class="cls-1" points="308.2 32.89 318.02 15.88 298.39 15.88 308.2 32.89"/><polygon class="cls-1" points="323.57 32.7 333.17 16.07 313.97 16.07 323.57 32.7"/><polygon class="cls-1" points="338.94 32.51 348.32 16.26 329.56 16.26 338.94 32.51"/><polygon class="cls-1" points="354.31 32.28 363.42 16.49 345.19 16.49 354.31 32.28"/><polygon class="cls-1" points="369.67 32.09 378.57 16.68 360.78 16.68 369.67 32.09"/><polygon class="cls-1" points="385.04 31.85 393.66 16.92 376.42 16.92 385.04 31.85"/><polygon class="cls-1" points="400.41 31.62 408.76 17.15 392.05 17.15 400.41 31.62"/><polygon class="cls-1" points="415.77 31.34 423.8 17.43 407.75 17.43 415.77 31.34"/><polygon class="cls-1" points="8.55 46.05 15.82 33.46 1.28 33.46 8.55 46.05"/><polygon class="cls-1" points="23.92 46.28 31.46 33.22 16.38 33.22 23.92 46.28"/><polygon class="cls-1" points="39.28 46.47 47.04 33.03 31.53 33.03 39.28 46.47"/><polygon class="cls-1" points="54.65 46.7 62.68 32.8 46.63 32.8 54.65 46.7"/><polygon class="cls-1" points="70.02 46.89 78.26 32.61 61.77 32.61 70.02 46.89"/><polygon class="cls-1" points="85.39 47.08 93.85 32.42 76.92 32.42 85.39 47.08"/><polygon class="cls-1" points="100.75 47.27 109.43 32.24 92.08 32.24 100.75 47.27"/><polygon class="cls-1" points="116.12 47.36 124.91 32.14 107.33 32.14 116.12 47.36"/><polygon class="cls-1" points="131.49 47.5 140.44 32 122.54 32 131.49 47.5"/><polygon class="cls-1" points="146.85 47.64 155.96 31.86 137.74 31.86 146.85 47.64"/><polygon class="cls-1" points="162.22 47.69 171.39 31.81 153.05 31.81 162.22 47.69"/><polygon class="cls-1" points="177.59 47.78 186.86 31.72 168.31 31.72 177.59 47.78"/><polygon class="cls-1" points="192.95 47.83 202.28 31.67 183.63 31.67 192.95 47.83"/><polygon class="cls-1" points="208.32 47.83 217.65 31.67 198.99 31.67 208.32 47.83"/><polygon class="cls-1" points="223.69 47.83 233.02 31.67 214.36 31.67 223.69 47.83"/><polygon class="cls-1" points="239.05 47.78 248.33 31.72 229.78 31.72 239.05 47.78"/><polygon class="cls-1" points="254.42 47.78 263.69 31.72 245.15 31.72 254.42 47.78"/><polygon class="cls-1" points="269.79 47.69 278.95 31.81 260.62 31.81 269.79 47.69"/><polygon class="cls-1" points="285.15 47.6 294.21 31.91 276.1 31.91 285.15 47.6"/><polygon class="cls-1" points="300.52 47.5 309.47 32 291.57 32 300.52 47.5"/><polygon class="cls-1" points="315.89 47.36 324.67 32.14 307.1 32.14 315.89 47.36"/><polygon class="cls-1" points="331.25 47.22 339.88 32.28 322.63 32.28 331.25 47.22"/><polygon class="cls-1" points="346.62 47.03 355.03 32.47 338.21 32.47 346.62 47.03"/><polygon class="cls-1" points="361.99 46.89 370.23 32.61 353.75 32.61 361.99 46.89"/><polygon class="cls-1" points="377.36 46.66 385.33 32.85 369.38 32.85 377.36 46.66"/><polygon class="cls-1" points="392.72 46.47 400.48 33.03 384.97 33.03 392.72 46.47"/><polygon class="cls-1" points="408.09 46.23 415.57 33.27 400.61 33.27 408.09 46.23"/><polygon class="cls-1" points="16.23 60.9 22.91 49.34 9.56 49.34 16.23 60.9"/><polygon class="cls-1" points="31.6 61.13 38.54 49.11 24.66 49.11 31.6 61.13"/><polygon class="cls-1" points="46.97 61.32 54.13 48.92 39.81 48.92 46.97 61.32"/><polygon class="cls-1" points="62.34 61.46 69.66 48.78 55.01 48.78 62.34 61.46"/><polygon class="cls-1" points="77.7 61.65 85.24 48.59 70.16 48.59 77.7 61.65"/><polygon class="cls-1" points="93.07 61.79 100.77 48.45 85.37 48.45 93.07 61.79"/><polygon class="cls-1" points="108.44 61.93 116.3 48.31 100.57 48.31 108.44 61.93"/><polygon class="cls-1" points="123.8 62.02 131.78 48.21 115.83 48.21 123.8 62.02"/><polygon class="cls-1" points="139.17 62.12 147.25 48.12 131.09 48.12 139.17 62.12"/><polygon class="cls-1" points="154.54 62.21 162.73 48.03 146.35 48.03 154.54 62.21"/><polygon class="cls-1" points="169.9 62.26 178.15 47.98 161.66 47.98 169.9 62.26"/><polygon class="cls-1" points="185.27 62.3 193.57 47.93 176.97 47.93 185.27 62.3"/><polygon class="cls-1" points="200.64 62.3 208.94 47.93 192.34 47.93 200.64 62.3"/><polygon class="cls-1" points="216 62.3 224.3 47.93 207.71 47.93 216 62.3"/><polygon class="cls-1" points="231.37 62.26 239.61 47.98 223.13 47.98 231.37 62.26"/><polygon class="cls-1" points="246.74 62.26 254.98 47.98 238.49 47.98 246.74 62.26"/><polygon class="cls-1" points="262.1 62.16 270.24 48.07 253.97 48.07 262.1 62.16"/><polygon class="cls-1" points="277.47 62.12 285.55 48.12 269.39 48.12 277.47 62.12"/><polygon class="cls-1" points="292.84 62.02 300.81 48.21 284.87 48.21 292.84 62.02"/><polygon class="cls-1" points="308.2 61.88 316.01 48.35 300.39 48.35 308.2 61.88"/><polygon class="cls-1" points="323.57 61.74 331.22 48.5 315.92 48.5 323.57 61.74"/><polygon class="cls-1" points="338.94 61.6 346.42 48.64 331.45 48.64 338.94 61.6"/><polygon class="cls-1" points="354.31 61.46 361.63 48.78 346.98 48.78 354.31 61.46"/><polygon class="cls-1" points="369.67 61.27 376.78 48.97 362.57 48.97 369.67 61.27"/><polygon class="cls-1" points="385.04 61.08 391.93 49.15 378.15 49.15 385.04 61.08"/><polygon class="cls-1" points="400.41 60.9 407.08 49.34 393.74 49.34 400.41 60.9"/><polygon class="cls-1" points="415.77 60.71 422.23 49.53 409.32 49.53 415.77 60.71"/><polygon class="cls-1" points="8.55 75.37 14.19 65.6 2.91 65.6 8.55 75.37"/><polygon class="cls-1" points="23.92 75.56 29.78 65.41 18.06 65.41 23.92 75.56"/><polygon class="cls-1" points="39.28 75.75 45.36 65.22 33.21 65.22 39.28 75.75"/><polygon class="cls-1" points="54.65 75.93 60.94 65.04 48.36 65.04 54.65 75.93"/><polygon class="cls-1" points="70.02 76.08 76.47 64.9 63.56 64.9 70.02 76.08"/><polygon class="cls-1" points="85.39 76.22 92 64.75 78.77 64.75 85.39 76.22"/><polygon class="cls-1" points="100.75 76.31 107.48 64.66 94.03 64.66 100.75 76.31"/><polygon class="cls-1" points="116.12 76.45 123.01 64.52 109.23 64.52 116.12 76.45"/><polygon class="cls-1" points="131.49 76.55 138.48 64.43 124.49 64.43 131.49 76.55"/><polygon class="cls-1" points="146.85 76.64 153.96 64.33 139.75 64.33 146.85 76.64"/><polygon class="cls-1" points="162.22 76.69 169.38 64.29 155.06 64.29 162.22 76.69"/><polygon class="cls-1" points="177.59 76.78 184.85 64.19 170.32 64.19 177.59 76.78"/><polygon class="cls-1" points="192.95 76.78 200.22 64.19 185.69 64.19 192.95 76.78"/><polygon class="cls-1" points="208.32 76.83 215.64 64.14 201 64.14 208.32 76.83"/><polygon class="cls-1" points="223.69 76.78 230.96 64.19 216.42 64.19 223.69 76.78"/><polygon class="cls-1" points="239.05 76.78 246.32 64.19 231.79 64.19 239.05 76.78"/><polygon class="cls-1" points="254.42 76.78 261.69 64.19 247.15 64.19 254.42 76.78"/><polygon class="cls-1" points="269.79 76.69 276.95 64.29 262.63 64.29 269.79 76.69"/><polygon class="cls-1" points="285.15 76.64 292.26 64.33 278.05 64.33 285.15 76.64"/><polygon class="cls-1" points="300.52 76.55 307.52 64.43 293.52 64.43 300.52 76.55"/><polygon class="cls-1" points="315.89 76.45 322.78 64.52 309 64.52 315.89 76.45"/><polygon class="cls-1" points="331.25 76.31 337.98 64.66 324.53 64.66 331.25 76.31"/><polygon class="cls-1" points="346.62 76.22 353.24 64.75 340 64.75 346.62 76.22"/><polygon class="cls-1" points="361.99 76.08 368.44 64.9 355.54 64.9 361.99 76.08"/><polygon class="cls-1" points="377.36 75.89 383.59 65.08 371.12 65.08 377.36 75.89"/><polygon class="cls-1" points="392.72 75.75 398.8 65.22 386.65 65.22 392.72 75.75"/><polygon class="cls-1" points="408.09 75.56 413.95 65.41 402.23 65.41 408.09 75.56"/><polygon class="cls-1" points="16.23 90.22 21.28 81.48 11.19 81.48 16.23 90.22"/><polygon class="cls-1" points="31.6 90.41 36.86 81.3 26.34 81.3 31.6 90.41"/><polygon class="cls-1" points="46.97 90.55 52.39 81.16 41.55 81.16 46.97 90.55"/><polygon class="cls-1" points="62.34 90.69 67.92 81.02 56.75 81.02 62.34 90.69"/><polygon class="cls-1" points="77.7 90.83 83.45 80.87 71.95 80.87 77.7 90.83"/><polygon class="cls-1" points="93.07 90.92 98.93 80.78 87.21 80.78 93.07 90.92"/><polygon class="cls-1" points="108.44 91.02 114.4 80.69 102.47 80.69 108.44 91.02"/><polygon class="cls-1" points="123.8 91.11 129.88 80.59 117.73 80.59 123.8 91.11"/><polygon class="cls-1" points="139.17 91.21 145.35 80.5 132.99 80.5 139.17 91.21"/><polygon class="cls-1" points="154.54 91.25 160.77 80.45 148.3 80.45 154.54 91.25"/><polygon class="cls-1" points="169.9 91.3 176.19 80.4 163.61 80.4 169.9 91.3"/><polygon class="cls-1" points="185.27 91.35 191.62 80.36 178.92 80.36 185.27 91.35"/><polygon class="cls-1" points="200.64 91.35 206.98 80.36 194.29 80.36 200.64 91.35"/><polygon class="cls-1" points="216 91.35 222.35 80.36 209.66 80.36 216 91.35"/><polygon class="cls-1" points="231.37 91.3 237.66 80.4 225.08 80.4 231.37 91.3"/><polygon class="cls-1" points="246.74 91.3 253.03 80.4 240.45 80.4 246.74 91.3"/><polygon class="cls-1" points="262.1 91.25 268.34 80.45 255.87 80.45 262.1 91.25"/><polygon class="cls-1" points="277.47 91.21 283.65 80.5 271.29 80.5 277.47 91.21"/><polygon class="cls-1" points="292.84 91.11 298.91 80.59 286.76 80.59 292.84 91.11"/><polygon class="cls-1" points="308.2 91.02 314.17 80.69 302.24 80.69 308.2 91.02"/><polygon class="cls-1" points="323.57 90.92 329.43 80.78 317.71 80.78 323.57 90.92"/><polygon class="cls-1" points="338.94 90.78 344.63 80.92 333.24 80.92 338.94 90.78"/><polygon class="cls-1" points="354.31 90.69 359.89 81.02 348.72 81.02 354.31 90.69"/><polygon class="cls-1" points="369.67 90.55 375.1 81.16 364.25 81.16 369.67 90.55"/><polygon class="cls-1" points="385.04 90.36 390.25 81.34 379.83 81.34 385.04 90.36"/><polygon class="cls-1" points="400.41 90.22 405.45 81.48 395.36 81.48 400.41 90.22"/><polygon class="cls-1" points="415.77 90.03 420.6 81.67 410.95 81.67 415.77 90.03"/><polygon class="cls-1" points="8.55 104.79 12.67 97.65 4.43 97.65 8.55 104.79"/><polygon class="cls-1" points="23.92 104.93 28.2 97.51 19.63 97.51 23.92 104.93"/><polygon class="cls-1" points="39.28 105.07 43.73 97.37 34.84 97.37 39.28 105.07"/><polygon class="cls-1" points="54.65 105.21 59.26 97.23 50.04 97.23 54.65 105.21"/><polygon class="cls-1" points="70.02 105.31 74.74 97.13 65.3 97.13 70.02 105.31"/><polygon class="cls-1" points="85.39 105.45 90.27 96.99 80.5 96.99 85.39 105.45"/><polygon class="cls-1" points="100.75 105.54 105.74 96.9 95.76 96.9 100.75 105.54"/><polygon class="cls-1" points="116.12 105.63 121.22 96.8 111.02 96.8 116.12 105.63"/><polygon class="cls-1" points="131.49 105.73 136.69 96.71 126.28 96.71 131.49 105.73"/><polygon class="cls-1" points="146.85 105.78 152.11 96.66 141.59 96.66 146.85 105.78"/><polygon class="cls-1" points="162.22 105.82 167.53 96.62 156.91 96.62 162.22 105.82"/><polygon class="cls-1" points="177.59 105.87 182.96 96.57 172.22 96.57 177.59 105.87"/><polygon class="cls-1" points="192.95 105.92 198.38 96.52 187.53 96.52 192.95 105.92"/><polygon class="cls-1" points="208.32 105.92 213.74 96.52 202.9 96.52 208.32 105.92"/><polygon class="cls-1" points="223.69 105.92 229.11 96.52 218.26 96.52 223.69 105.92"/><polygon class="cls-1" points="239.05 105.87 244.42 96.57 233.69 96.57 239.05 105.87"/><polygon class="cls-1" points="254.42 105.87 259.79 96.57 249.05 96.57 254.42 105.87"/><polygon class="cls-1" points="269.79 105.82 275.1 96.62 264.47 96.62 269.79 105.82"/><polygon class="cls-1" points="285.15 105.78 290.42 96.66 279.89 96.66 285.15 105.78"/><polygon class="cls-1" points="300.52 105.68 305.67 96.76 295.37 96.76 300.52 105.68"/><polygon class="cls-1" points="315.89 105.63 320.99 96.8 310.79 96.8 315.89 105.63"/><polygon class="cls-1" points="331.25 105.54 336.25 96.9 326.26 96.9 331.25 105.54"/><polygon class="cls-1" points="346.62 105.45 351.5 96.99 341.74 96.99 346.62 105.45"/><polygon class="cls-1" points="361.99 105.31 366.71 97.13 357.27 97.13 361.99 105.31"/><polygon class="cls-1" points="377.36 105.21 381.97 97.23 372.75 97.23 377.36 105.21"/><polygon class="cls-1" points="392.72 105.02 397.12 97.42 388.33 97.42 392.72 105.02"/><polygon class="cls-1" points="408.09 104.93 412.37 97.51 403.81 97.51 408.09 104.93"/><polygon class="cls-1" points="16.23 119.64 19.76 113.53 12.71 113.53 16.23 119.64"/><polygon class="cls-1" points="31.6 119.78 35.29 113.39 27.91 113.39 31.6 119.78"/><polygon class="cls-1" points="46.97 119.87 50.77 113.3 43.17 113.3 46.97 119.87"/><polygon class="cls-1" points="62.34 120.02 66.29 113.16 58.38 113.16 62.34 120.02"/><polygon class="cls-1" points="77.7 120.11 81.77 113.06 73.63 113.06 77.7 120.11"/><polygon class="cls-1" points="93.07 120.2 97.25 112.97 88.89 112.97 93.07 120.2"/><polygon class="cls-1" points="108.44 120.25 112.67 112.92 104.2 112.92 108.44 120.25"/><polygon class="cls-1" points="123.8 120.34 128.14 112.83 119.46 112.83 123.8 120.34"/><polygon class="cls-1" points="139.17 120.39 143.56 112.78 134.78 112.78 139.17 120.39"/><polygon class="cls-1" points="154.54 120.44 158.98 112.73 150.09 112.73 154.54 120.44"/><polygon class="cls-1" points="169.9 120.48 174.41 112.69 165.4 112.69 169.9 120.48"/><polygon class="cls-1" points="185.27 120.53 189.83 112.64 180.71 112.64 185.27 120.53"/><polygon class="cls-1" points="200.64 120.53 205.19 112.64 196.08 112.64 200.64 120.53"/><polygon class="cls-1" points="216 120.53 220.56 112.64 211.45 112.64 216 120.53"/><polygon class="cls-1" points="231.37 120.48 235.87 112.69 226.87 112.69 231.37 120.48"/><polygon class="cls-1" points="246.74 120.48 251.24 112.69 242.24 112.69 246.74 120.48"/><polygon class="cls-1" points="262.1 120.44 266.55 112.73 257.66 112.73 262.1 120.44"/><polygon class="cls-1" points="277.47 120.39 281.86 112.78 273.08 112.78 277.47 120.39"/><polygon class="cls-1" points="292.84 120.34 297.18 112.83 288.5 112.83 292.84 120.34"/><polygon class="cls-1" points="308.2 120.25 312.44 112.92 303.97 112.92 308.2 120.25"/><polygon class="cls-1" points="323.57 120.2 327.75 112.97 319.39 112.97 323.57 120.2"/><polygon class="cls-1" points="338.94 120.11 343.01 113.06 334.87 113.06 338.94 120.11"/><polygon class="cls-1" points="354.31 119.97 358.21 113.2 350.4 113.2 354.31 119.97"/><polygon class="cls-1" points="369.67 119.87 373.47 113.3 365.88 113.3 369.67 119.87"/><polygon class="cls-1" points="385.04 119.78 388.73 113.39 381.35 113.39 385.04 119.78"/><polygon class="cls-1" points="400.41 119.64 403.93 113.53 396.88 113.53 400.41 119.64"/><polygon class="cls-1" points="415.77 119.5 419.13 113.67 412.41 113.67 415.77 119.5"/><polygon class="cls-1" points="8.55 134.25 11.21 129.65 5.89 129.65 8.55 134.25"/><polygon class="cls-1" points="23.92 134.4 26.74 129.51 21.1 129.51 23.92 134.4"/><polygon class="cls-1" points="39.28 134.49 42.21 129.42 36.36 129.42 39.28 134.49"/><polygon class="cls-1" points="54.65 134.58 57.69 129.32 51.62 129.32 54.65 134.58"/><polygon class="cls-1" points="70.02 134.72 73.22 129.18 66.82 129.18 70.02 134.72"/><polygon class="cls-1" points="85.39 134.77 88.64 129.13 82.13 129.13 85.39 134.77"/><polygon class="cls-1" points="100.75 134.87 104.11 129.04 97.39 129.04 100.75 134.87"/><polygon class="cls-1" points="116.12 134.96 119.59 128.95 112.65 128.95 116.12 134.96"/><polygon class="cls-1" points="131.49 135.01 135.01 128.9 127.96 128.9 131.49 135.01"/><polygon class="cls-1" points="146.85 135.05 150.43 128.85 143.27 128.85 146.85 135.05"/><polygon class="cls-1" points="162.22 135.1 165.85 128.81 158.59 128.81 162.22 135.1"/><polygon class="cls-1" points="177.59 135.15 181.28 128.76 173.9 128.76 177.59 135.15"/><polygon class="cls-1" points="192.95 135.15 196.64 128.76 189.26 128.76 192.95 135.15"/><polygon class="cls-1" points="208.32 135.15 212.01 128.76 204.63 128.76 208.32 135.15"/><polygon class="cls-1" points="223.69 135.15 227.38 128.76 220 128.76 223.69 135.15"/><polygon class="cls-1" points="239.05 135.15 242.74 128.76 235.37 128.76 239.05 135.15"/><polygon class="cls-1" points="254.42 135.15 258.11 128.76 250.73 128.76 254.42 135.15"/><polygon class="cls-1" points="269.79 135.1 273.42 128.81 266.15 128.81 269.79 135.1"/><polygon class="cls-1" points="285.15 135.05 288.73 128.85 281.57 128.85 285.15 135.05"/><polygon class="cls-1" points="300.52 135.01 304.05 128.9 297 128.9 300.52 135.01"/><polygon class="cls-1" points="315.89 134.91 319.31 128.99 312.47 128.99 315.89 134.91"/><polygon class="cls-1" points="331.25 134.87 334.62 129.04 327.89 129.04 331.25 134.87"/><polygon class="cls-1" points="346.62 134.77 349.88 129.13 343.37 129.13 346.62 134.77"/><polygon class="cls-1" points="361.99 134.68 365.13 129.23 358.84 129.23 361.99 134.68"/><polygon class="cls-1" points="377.36 134.58 380.39 129.32 374.32 129.32 377.36 134.58"/><polygon class="cls-1" points="392.72 134.49 395.65 129.42 389.79 129.42 392.72 134.49"/><polygon class="cls-1" points="408.09 134.35 410.86 129.56 405.32 129.56 408.09 134.35"/><polygon class="cls-1" points="423.46 134.25 426.11 129.65 420.8 129.65 423.46 134.25"/><polygon class="cls-1" points="16.23 149.15 18.35 145.49 14.12 145.49 16.23 149.15"/><polygon class="cls-1" points="31.6 149.29 33.88 145.35 29.32 145.35 31.6 149.29"/><polygon class="cls-1" points="46.97 149.34 49.3 145.3 44.64 145.3 46.97 149.34"/><polygon class="cls-1" points="62.34 149.43 64.78 145.21 59.9 145.21 62.34 149.43"/><polygon class="cls-1" points="77.7 149.53 80.25 145.11 75.15 145.11 77.7 149.53"/><polygon class="cls-1" points="93.07 149.57 95.67 145.06 90.47 145.06 93.07 149.57"/><polygon class="cls-1" points="108.44 149.67 111.15 144.97 105.72 144.97 108.44 149.67"/><polygon class="cls-1" points="123.8 149.72 126.57 144.92 121.04 144.92 123.8 149.72"/><polygon class="cls-1" points="139.17 149.76 141.99 144.88 136.35 144.88 139.17 149.76"/><polygon class="cls-1" points="154.54 149.81 157.41 144.83 151.66 144.83 154.54 149.81"/><polygon class="cls-1" points="169.9 149.81 172.78 144.83 167.03 144.83 169.9 149.81"/><polygon class="cls-1" points="185.27 149.86 188.2 144.78 182.34 144.78 185.27 149.86"/><polygon class="cls-1" points="200.64 149.86 203.57 144.78 197.71 144.78 200.64 149.86"/><polygon class="cls-1" points="216 149.86 218.93 144.78 213.07 144.78 216 149.86"/><polygon class="cls-1" points="231.37 149.86 234.3 144.78 228.44 144.78 231.37 149.86"/><polygon class="cls-1" points="246.74 149.81 249.61 144.83 243.86 144.83 246.74 149.81"/><polygon class="cls-1" points="262.1 149.81 264.98 144.83 259.23 144.83 262.1 149.81"/><polygon class="cls-1" points="277.47 149.76 280.29 144.88 274.65 144.88 277.47 149.76"/><polygon class="cls-1" points="292.84 149.72 295.6 144.92 290.07 144.92 292.84 149.72"/><polygon class="cls-1" points="308.2 149.67 310.92 144.97 305.49 144.97 308.2 149.67"/><polygon class="cls-1" points="323.57 149.57 326.18 145.06 320.97 145.06 323.57 149.57"/><polygon class="cls-1" points="338.94 149.53 341.49 145.11 336.39 145.11 338.94 149.53"/><polygon class="cls-1" points="354.31 149.43 356.75 145.21 351.87 145.21 354.31 149.43"/><polygon class="cls-1" points="369.67 149.34 372 145.3 367.34 145.3 369.67 149.34"/><polygon class="cls-1" points="385.04 149.25 387.26 145.39 382.81 145.39 385.04 149.25"/><polygon class="cls-1" points="400.41 149.15 402.52 145.49 398.29 145.49 400.41 149.15"/><polygon class="cls-1" points="415.77 149.06 417.78 145.58 413.77 145.58 415.77 149.06"/><polygon class="cls-1" points="8.55 163.91 9.96 161.47 7.14 161.47 8.55 163.91"/><polygon class="cls-1" points="23.92 164 25.44 161.37 22.4 161.37 23.92 164"/><polygon class="cls-1" points="39.28 164.1 40.91 161.28 37.66 161.28 39.28 164.1"/><polygon class="cls-1" points="54.65 164.14 56.33 161.23 52.97 161.23 54.65 164.14"/><polygon class="cls-1" points="70.02 164.24 71.81 161.14 68.23 161.14 70.02 164.24"/><polygon class="cls-1" points="85.39 164.28 87.23 161.09 83.54 161.09 85.39 164.28"/><polygon class="cls-1" points="100.75 164.38 102.7 161 98.8 161 100.75 164.38"/><polygon class="cls-1" points="116.12 164.43 118.13 160.95 114.11 160.95 116.12 164.43"/><polygon class="cls-1" points="131.49 164.47 133.55 160.9 129.43 160.9 131.49 164.47"/><polygon class="cls-1" points="146.85 164.52 148.97 160.85 144.74 160.85 146.85 164.52"/><polygon class="cls-1" points="162.22 164.52 164.34 160.85 160.1 160.85 162.22 164.52"/><polygon class="cls-1" points="177.59 164.57 179.76 160.81 175.42 160.81 177.59 164.57"/><polygon class="cls-1" points="192.95 164.57 195.12 160.81 190.78 160.81 192.95 164.57"/><polygon class="cls-1" points="208.32 164.61 210.54 160.76 206.1 160.76 208.32 164.61"/><polygon class="cls-1" points="223.69 164.61 225.91 160.76 221.46 160.76 223.69 164.61"/><polygon class="cls-1" points="239.05 164.57 241.22 160.81 236.88 160.81 239.05 164.57"/><polygon class="cls-1" points="254.42 164.57 256.59 160.81 252.25 160.81 254.42 164.57"/><polygon class="cls-1" points="269.79 164.52 271.9 160.85 267.67 160.85 269.79 164.52"/><polygon class="cls-1" points="285.15 164.52 287.27 160.85 283.04 160.85 285.15 164.52"/><polygon class="cls-1" points="300.52 164.47 302.58 160.9 298.46 160.9 300.52 164.47"/><polygon class="cls-1" points="315.89 164.43 317.89 160.95 313.88 160.95 315.89 164.43"/><polygon class="cls-1" points="331.25 164.38 333.21 161 329.3 161 331.25 164.38"/><polygon class="cls-1" points="346.62 164.28 348.47 161.09 344.78 161.09 346.62 164.28"/><polygon class="cls-1" points="361.99 164.24 363.78 161.14 360.2 161.14 361.99 164.24"/><polygon class="cls-1" points="377.36 164.14 379.04 161.23 375.67 161.23 377.36 164.14"/><polygon class="cls-1" points="392.72 164.1 394.35 161.28 391.1 161.28 392.72 164.1"/><polygon class="cls-1" points="408.09 164 409.61 161.37 406.57 161.37 408.09 164"/><polygon class="cls-1" points="423.46 163.91 424.87 161.47 422.05 161.47 423.46 163.91"/><polygon class="cls-1" points="0.87 178.81 1.74 177.3 0 177.3 0.87 178.81"/><polygon class="cls-1" points="16.23 178.9 17.21 177.21 15.26 177.21 16.23 178.9"/><polygon class="cls-1" points="31.6 178.95 32.63 177.16 30.57 177.16 31.6 178.95"/><polygon class="cls-1" points="46.97 179.04 48.11 177.07 45.83 177.07 46.97 179.04"/><polygon class="cls-1" points="62.34 179.09 63.53 177.02 61.14 177.02 62.34 179.09"/><polygon class="cls-1" points="77.7 179.13 78.95 176.97 76.45 176.97 77.7 179.13"/><polygon class="cls-1" points="93.07 179.18 94.37 176.93 91.77 176.93 93.07 179.18"/><polygon class="cls-1" points="108.44 179.23 109.79 176.88 107.08 176.88 108.44 179.23"/><polygon class="cls-1" points="123.8 179.28 125.21 176.83 122.39 176.83 123.8 179.28"/><polygon class="cls-1" points="139.17 179.32 140.63 176.78 137.71 176.78 139.17 179.32"/><polygon class="cls-1" points="154.54 179.37 156.06 176.74 153.02 176.74 154.54 179.37"/><polygon class="cls-1" points="169.9 179.37 171.42 176.74 168.38 176.74 169.9 179.37"/><polygon class="cls-1" points="185.27 179.37 186.79 176.74 183.75 176.74 185.27 179.37"/><polygon class="cls-1" points="200.64 179.37 202.16 176.74 199.12 176.74 200.64 179.37"/><polygon class="cls-1" points="216 179.37 217.52 176.74 214.49 176.74 216 179.37"/><polygon class="cls-1" points="231.37 179.37 232.89 176.74 229.85 176.74 231.37 179.37"/><polygon class="cls-1" points="246.74 179.37 248.26 176.74 245.22 176.74 246.74 179.37"/><polygon class="cls-1" points="262.1 179.32 263.57 176.78 260.64 176.78 262.1 179.32"/><polygon class="cls-1" points="277.47 179.32 278.94 176.78 276.01 176.78 277.47 179.32"/><polygon class="cls-1" points="292.84 179.28 294.25 176.83 291.43 176.83 292.84 179.28"/><polygon class="cls-1" points="308.2 179.23 309.56 176.88 306.85 176.88 308.2 179.23"/><polygon class="cls-1" points="323.57 179.18 324.87 176.93 322.27 176.93 323.57 179.18"/><polygon class="cls-1" points="338.94 179.13 340.19 176.97 337.69 176.97 338.94 179.13"/><polygon class="cls-1" points="354.31 179.09 355.5 177.02 353.11 177.02 354.31 179.09"/><polygon class="cls-1" points="369.67 179.04 370.81 177.07 368.53 177.07 369.67 179.04"/><polygon class="cls-1" points="385.04 178.95 386.07 177.16 384.01 177.16 385.04 178.95"/><polygon class="cls-1" points="400.41 178.9 401.38 177.21 399.43 177.21 400.41 178.9"/><polygon class="cls-1" points="415.77 178.81 416.64 177.3 414.9 177.3 415.77 178.81"/><polygon class="cls-1" points="8.55 193.8 8.98 193.04 8.12 193.04 8.55 193.8"/><polygon class="cls-1" points="23.92 193.84 24.41 193 23.43 193 23.92 193.84"/><polygon class="cls-1" points="39.28 193.89 39.83 192.95 38.74 192.95 39.28 193.89"/><polygon class="cls-1" points="54.65 193.94 55.25 192.9 54.05 192.9 54.65 193.94"/><polygon class="cls-1" points="70.02 193.98 70.67 192.86 69.37 192.86 70.02 193.98"/><polygon class="cls-1" points="85.39 194.03 86.09 192.81 84.68 192.81 85.39 194.03"/><polygon class="cls-1" points="100.75 194.08 101.51 192.76 99.99 192.76 100.75 194.08"/><polygon class="cls-1" points="116.12 194.13 116.93 192.72 115.31 192.72 116.12 194.13"/><polygon class="cls-1" points="131.49 194.17 132.35 192.67 130.62 192.67 131.49 194.17"/><polygon class="cls-1" points="146.85 194.17 147.72 192.67 145.99 192.67 146.85 194.17"/><polygon class="cls-1" points="162.22 194.22 163.14 192.62 161.3 192.62 162.22 194.22"/><polygon class="cls-1" points="177.59 194.22 178.51 192.62 176.66 192.62 177.59 194.22"/><polygon class="cls-1" points="192.95 194.22 193.88 192.62 192.03 192.62 192.95 194.22"/><polygon class="cls-1" points="208.32 194.27 209.3 192.57 207.34 192.57 208.32 194.27"/><polygon class="cls-1" points="223.69 194.27 224.66 192.57 222.71 192.57 223.69 194.27"/><polygon class="cls-1" points="239.05 194.22 239.98 192.62 238.13 192.62 239.05 194.22"/><polygon class="cls-1" points="254.42 194.22 255.34 192.62 253.5 192.62 254.42 194.22"/><polygon class="cls-1" points="269.79 194.22 270.71 192.62 268.87 192.62 269.79 194.22"/><polygon class="cls-1" points="285.15 194.17 286.02 192.67 284.29 192.67 285.15 194.17"/><polygon class="cls-1" points="300.52 194.17 301.39 192.67 299.65 192.67 300.52 194.17"/><polygon class="cls-1" points="315.89 194.13 316.7 192.72 315.07 192.72 315.89 194.13"/><polygon class="cls-1" points="331.25 194.08 332.01 192.76 330.5 192.76 331.25 194.08"/><polygon class="cls-1" points="346.62 194.03 347.33 192.81 345.92 192.81 346.62 194.03"/><polygon class="cls-1" points="361.99 193.98 362.64 192.86 361.34 192.86 361.99 193.98"/><polygon class="cls-1" points="377.36 193.94 377.95 192.9 376.76 192.9 377.36 193.94"/><polygon class="cls-1" points="392.72 193.89 393.26 192.95 392.18 192.95 392.72 193.89"/><polygon class="cls-1" points="408.09 193.84 408.58 193 407.6 193 408.09 193.84"/><polygon class="cls-1" points="423.46 193.8 423.89 193.04 423.02 193.04 423.46 193.8"/><polygon class="cls-1" points="0.87 208.83 0.92 208.74 0.81 208.74 0.87 208.83"/><polygon class="cls-1" points="16.23 208.88 16.34 208.69 16.13 208.69 16.23 208.88"/><polygon class="cls-1" points="31.6 208.93 31.76 208.65 31.44 208.65 31.6 208.93"/><polygon class="cls-1" points="46.97 208.97 47.19 208.6 46.75 208.6 46.97 208.97"/><polygon class="cls-1" points="62.34 209.02 62.61 208.55 62.06 208.55 62.34 209.02"/><polygon class="cls-1" points="77.7 209.02 77.97 208.55 77.43 208.55 77.7 209.02"/><polygon class="cls-1" points="93.07 209.07 93.39 208.5 92.74 208.5 93.07 209.07"/><polygon class="cls-1" points="108.44 209.12 108.81 208.46 108.06 208.46 108.44 209.12"/><polygon class="cls-1" points="123.8 209.12 124.18 208.46 123.42 208.46 123.8 209.12"/><polygon class="cls-1" points="139.17 209.16 139.6 208.41 138.74 208.41 139.17 209.16"/><polygon class="cls-1" points="154.54 209.16 154.97 208.41 154.1 208.41 154.54 209.16"/><polygon class="cls-1" points="169.9 209.16 170.34 208.41 169.47 208.41 169.9 209.16"/><polygon class="cls-1" points="185.27 209.16 185.7 208.41 184.84 208.41 185.27 209.16"/><polygon class="cls-1" points="200.64 209.16 201.07 208.41 200.2 208.41 200.64 209.16"/><polygon class="cls-1" points="216 209.16 216.44 208.41 215.57 208.41 216 209.16"/><polygon class="cls-1" points="231.37 209.16 231.8 208.41 230.94 208.41 231.37 209.16"/><polygon class="cls-1" points="246.74 209.16 247.17 208.41 246.3 208.41 246.74 209.16"/><polygon class="cls-1" points="262.1 209.16 262.54 208.41 261.67 208.41 262.1 209.16"/><polygon class="cls-1" points="277.47 209.12 277.85 208.46 277.09 208.46 277.47 209.12"/><polygon class="cls-1" points="292.84 209.12 293.22 208.46 292.46 208.46 292.84 209.12"/><polygon class="cls-1" points="308.2 209.12 308.58 208.46 307.82 208.46 308.2 209.12"/><polygon class="cls-1" points="323.57 209.07 323.9 208.5 323.25 208.5 323.57 209.07"/><polygon class="cls-1" points="338.94 209.02 339.21 208.55 338.67 208.55 338.94 209.02"/><polygon class="cls-1" points="354.31 208.97 354.52 208.6 354.09 208.6 354.31 208.97"/><polygon class="cls-1" points="369.67 208.97 369.89 208.6 369.45 208.6 369.67 208.97"/><polygon class="cls-1" points="385.04 208.93 385.2 208.65 384.88 208.65 385.04 208.93"/><polygon class="cls-1" points="400.41 208.88 400.51 208.69 400.3 208.69 400.41 208.88"/><polygon class="cls-1" points="415.77 208.83 415.83 208.74 415.72 208.74 415.77 208.83"/><polygon class="cls-1" points="116.12 224.2 116.17 224.11 116.06 224.11 116.12 224.2"/><polygon class="cls-1" points="131.49 224.2 131.54 224.11 131.43 224.11 131.49 224.2"/><polygon class="cls-1" points="146.85 224.2 146.91 224.11 146.8 224.11 146.85 224.2"/><polygon class="cls-1" points="162.22 224.2 162.27 224.11 162.16 224.11 162.22 224.2"/><polygon class="cls-1" points="177.59 224.2 177.64 224.11 177.53 224.11 177.59 224.2"/><polygon class="cls-1" points="192.95 224.25 193.06 224.06 192.84 224.06 192.95 224.25"/><polygon class="cls-1" points="208.32 224.25 208.43 224.06 208.21 224.06 208.32 224.25"/><polygon class="cls-1" points="223.69 224.25 223.8 224.06 223.58 224.06 223.69 224.25"/><polygon class="cls-1" points="239.05 224.25 239.16 224.06 238.94 224.06 239.05 224.25"/><polygon class="cls-1" points="254.42 224.2 254.47 224.11 254.37 224.11 254.42 224.2"/><polygon class="cls-1" points="269.79 224.2 269.84 224.11 269.73 224.11 269.79 224.2"/><polygon class="cls-1" points="285.15 224.2 285.21 224.11 285.1 224.11 285.15 224.2"/><polygon class="cls-1" points="300.52 224.2 300.58 224.11 300.47 224.11 300.52 224.2"/><polygon class="cls-1" points="315.89 224.2 315.94 224.11 315.83 224.11 315.89 224.2"/></svg>